<?xml version="1.0" standalone="no"?>
<!DOCTYPE svg PUBLIC "-//W3C//DTD SVG 20010904//EN"
 "http://www.w3.org/TR/2001/REC-SVG-20010904/DTD/svg10.dtd">
<svg version="1.0" xmlns="http://www.w3.org/2000/svg"
 width="124.000000pt" height="124.000000pt" viewBox="0 0 124.000000 124.000000"
 preserveAspectRatio="xMidYMid meet">
<metadata>
Created by potrace 1.11, written by Peter Selinger 2001-2013
</metadata>
<g transform="translate(0.000000,124.000000) scale(0.100000,-0.100000)"
fill="#000000" stroke="none">
<path d="M287 1230 c-117 -21 -215 -99 -259 -209 -22 -55 -23 -65 -23 -401 0
-341 0 -346 24 -405 32 -79 107 -154 186 -186 59 -24 64 -24 405 -24 341 0
346 0 405 24 79 32 154 107 186 186 24 59 24 64 24 405 0 341 0 346 -24 405
-32 80 -107 154 -186 186 -58 22 -70 23 -375 25 -173 1 -337 -1 -363 -6z m679
-124 c68 -21 120 -74 141 -145 14 -47 17 -103 17 -341 0 -337 -6 -372 -77
-437 -67 -62 -105 -68 -432 -67 -323 0 -364 7 -428 71 -65 64 -72 105 -72 433
1 202 4 298 14 330 31 109 95 156 229 171 130 13 549 3 608 -15z"/>
<path d="M899 1001 c-35 -36 -37 -61 -6 -97 17 -19 33 -27 56 -27 70 0 101 84
47 130 -36 31 -61 29 -97 -6z"/>
<path d="M522 926 c-179 -58 -270 -266 -194 -439 26 -59 100 -132 160 -160 70
-32 199 -31 267 2 63 32 124 93 156 156 33 68 34 197 2 267 -28 61 -101 134
-161 160 -59 27 -171 33 -230 14z m206 -134 c18 -13 44 -40 60 -59 24 -32 27
-45 27 -113 0 -68 -3 -81 -27 -113 -51 -66 -84 -82 -168 -82 -62 0 -80 4 -108
23 -75 54 -105 132 -88 227 8 42 67 112 111 132 47 21 153 13 193 -15z"/>
</g>
</svg>
